<?xml version="1.0" standalone="no"?>
<!DOCTYPE svg PUBLIC "-//W3C//DTD SVG 20010904//EN"
 "http://www.w3.org/TR/2001/REC-SVG-20010904/DTD/svg10.dtd">
<svg version="1.0" xmlns="http://www.w3.org/2000/svg"
 width="800.000000pt" height="800.000000pt" viewBox="0 0 800.000000 800.000000"
 preserveAspectRatio="xMidYMid meet">
<metadata>
Created by potrace 1.14, written by Peter Selinger 2001-2017
</metadata>
<g transform="translate(0.000000,800.000000) scale(0.100000,-0.100000)"
fill="#000000" stroke="none">
<path d="M3377 7223 c-1 -1 -56 -4 -122 -8 -188 -10 -346 -20 -465 -29 -76 -6
-109 -9 -215 -20 -33 -4 -85 -9 -115 -12 -30 -3 -66 -7 -80 -9 -14 -2 -52 -7
-85 -11 -33 -3 -69 -8 -80 -10 -11 -3 -36 -7 -55 -10 -19 -3 -62 -10 -95 -15
-33 -5 -76 -12 -95 -14 -19 -3 -44 -7 -56 -10 -12 -2 -39 -7 -60 -11 -21 -3
-73 -12 -114 -21 -41 -8 -86 -17 -100 -20 -173 -31 -566 -136 -770 -203 -199
-66 -452 -168 -510 -205 -94 -61 -184 -177 -209 -270 -41 -153 -35 -215 40
-435 28 -80 52 -149 53 -155 2 -5 7 -19 11 -30 43 -107 55 -140 55 -147 0 -4
8 -27 19 -51 10 -23 47 -109 81 -192 110 -264 208 -472 300 -640 98 -180 141
-255 170 -300 23 -36 36 -59 85 -150 21 -38 51 -91 66 -118 16 -26 29 -50 29
-53 0 -3 16 -30 35 -60 19 -30 35 -56 35 -59 0 -8 114 -180 122 -183 4 -2 8
-8 8 -13 0 -10 162 -238 209 -295 14 -17 33 -40 41 -50 26 -33 104 -128 130
-157 56 -64 76 -86 168 -186 126 -135 253 -262 387 -386 229 -212 225 -208
229 -245 10 -74 17 -137 21 -180 3 -25 7 -63 10 -85 3 -22 7 -71 10 -110 3
-38 8 -81 10 -95 2 -14 7 -50 10 -80 10 -109 16 -166 20 -195 3 -16 7 -48 10
-69 11 -90 33 -131 92 -167 57 -35 104 -32 248 17 72 24 137 46 145 48 8 3 72
25 142 49 69 25 129 43 132 39 3 -3 6 1 6 8 0 7 3 11 6 7 4 -3 23 0 43 8 20 7
45 16 56 21 88 33 82 35 287 -99 79 -52 190 -122 248 -158 131 -80 142 -87
160 -95 8 -4 32 -18 53 -31 21 -13 54 -33 73 -44 19 -10 50 -28 69 -39 19 -10
65 -36 102 -56 37 -20 73 -40 78 -44 6 -4 60 -34 120 -66 61 -32 142 -75 180
-96 80 -43 106 -55 119 -56 5 0 12 -4 15 -9 7 -9 183 -99 188 -96 1 1 31 -14
65 -33 35 -20 68 -37 73 -38 6 -2 44 -19 85 -38 97 -46 244 -114 341 -157 126
-56 155 -64 229 -65 65 0 82 4 123 28 69 39 126 90 214 189 76 85 93 106 93
117 0 6 4 10 9 10 9 0 72 86 157 215 25 39 59 88 74 110 15 22 35 56 45 75 10
19 21 37 24 40 6 5 23 35 58 100 10 19 21 37 24 40 3 3 31 57 62 120 51 104
56 121 55 179 0 78 -23 136 -74 191 -30 33 -106 80 -136 86 -5 1 -9 2 -10 4
-2 1 -10 3 -18 5 -8 2 -37 13 -65 24 -27 11 -115 46 -195 76 -80 31 -174 69
-210 84 -36 16 -146 63 -245 105 -192 82 -297 134 -302 151 -2 8 82 45 117 51
3 0 12 4 20 7 8 4 107 37 220 76 460 155 452 151 512 231 49 65 63 175 44 335
-4 28 -8 73 -11 100 -2 28 -7 75 -10 105 -3 30 -8 80 -10 110 -2 31 -5 62 -7
70 -2 11 5 14 28 13 33 -3 199 -63 247 -89 15 -8 27 -13 27 -10 0 3 25 -5 55
-19 31 -13 58 -24 60 -24 3 -1 20 -7 38 -15 19 -7 45 -17 58 -21 13 -4 38 -13
54 -21 140 -63 268 -86 338 -62 31 11 105 79 129 119 23 36 130 471 132 532 0
9 3 17 6 17 3 0 5 10 6 23 1 23 9 74 18 117 3 13 8 42 11 65 3 22 8 47 10 55
2 8 6 35 9 60 3 25 8 56 11 69 2 13 7 47 9 75 3 28 7 60 10 71 2 11 7 49 10
85 4 36 8 76 10 90 5 25 12 105 22 215 2 33 7 80 9 105 30 293 49 854 33 955
-40 247 -217 459 -473 565 -119 49 -116 48 -165 64 -92 31 -136 47 -155 56
-18 8 -487 167 -771 262 l-121 40 -18 51 c-20 57 -61 103 -99 113 -39 10 -129
-3 -186 -26 -54 -22 -84 -18 -162 21 -23 12 -188 59 -222 64 -15 2 -36 7 -46
10 -18 6 -61 13 -117 20 -18 2 -36 6 -40 8 -4 3 -30 8 -58 11 -27 4 -63 9 -80
12 -16 2 -46 6 -65 8 -19 3 -55 7 -80 10 -74 10 -212 23 -315 31 -38 3 -92 8
-120 10 -126 11 -1090 27 -1098 18z"/>
</g>
</svg>
